<svg width="23" height="22" viewBox="0 0 23 22" fill="none" xmlns="http://www.w3.org/2000/svg">
<path d="M17.5537 5.3754V5.38645" stroke="#626976" stroke-width="2" stroke-linecap="round" stroke-linejoin="round"/>
<path d="M17.5539 13.156L13.6637 7.59844C13.2892 6.92157 13.0977 6.1587 13.1083 5.3852C13.1189 4.61171 13.3311 3.85436 13.724 3.18799C14.1169 2.52162 14.6768 1.96928 15.3485 1.58556C16.0202 1.20183 16.7804 1 17.5539 1C18.3275 1 19.0877 1.20183 19.7594 1.58556C20.431 1.96928 20.991 2.52162 21.3839 3.18799C21.7767 3.85436 21.989 4.61171 21.9995 5.3852C22.0101 6.1587 21.8187 6.92157 21.4442 7.59844L17.5539 13.156Z" stroke="#626976" stroke-width="1.5" stroke-linecap="round" stroke-linejoin="round"/>
<path d="M9.21763 3.98602L7.55038 3.15239L0.881348 6.4869V20.9365L7.55038 17.602L14.2194 20.9365L20.8884 17.602V15.3789" stroke="#626976" stroke-width="1.5" stroke-linecap="round" stroke-linejoin="round"/>
<path d="M7.55029 3.15239V17.602" stroke="#626976" stroke-width="1.5" stroke-linecap="round" stroke-linejoin="round"/>
<path d="M14.2192 15.379V20.9365" stroke="#626976" stroke-width="1.5" stroke-linecap="round" stroke-linejoin="round"/>
</svg>
